<svg width="153" height="119" viewBox="0 0 153 119" fill="none" xmlns="http://www.w3.org/2000/svg">
<g filter="url(#filter0_d_33_11)">
<path fill-rule="evenodd" clip-rule="evenodd" d="M-5.55191 5.90596C35.9614 2.77499 82.2425 -8.72149 112.306 20.1094C145.581 52.0203 155.282 103.703 142.701 148.081C130.767 190.18 93.7448 221.092 51.8208 233.476C16.5281 243.901 -15.4332 219.605 -49.1007 204.738C-85.3375 188.737 -133.641 183.993 -145.741 146.239C-158.358 106.868 -132.269 65.5881 -103.064 36.3528C-77.7328 10.9954 -41.2727 8.60006 -5.55191 5.90596Z" fill="#DEEBF8"/>
<path fill-rule="evenodd" clip-rule="evenodd" d="M-5.55191 5.90596C35.9614 2.77499 82.2425 -8.72149 112.306 20.1094C145.581 52.0203 155.282 103.703 142.701 148.081C130.767 190.18 93.7448 221.092 51.8208 233.476C16.5281 243.901 -15.4332 219.605 -49.1007 204.738C-85.3375 188.737 -133.641 183.993 -145.741 146.239C-158.358 106.868 -132.269 65.5881 -103.064 36.3528C-77.7328 10.9954 -41.2727 8.60006 -5.55191 5.90596Z" stroke="black"/>
</g>
<defs>
<filter id="filter0_d_33_11" x="-153.5" y="0.500061" width="306" height="244" filterUnits="userSpaceOnUse" color-interpolation-filters="sRGB">
<feFlood flood-opacity="0" result="BackgroundImageFix"/>
<feColorMatrix in="SourceAlpha" type="matrix" values="0 0 0 0 0 0 0 0 0 0 0 0 0 0 0 0 0 0 127 0" result="hardAlpha"/>
<feOffset dy="4"/>
<feGaussianBlur stdDeviation="2"/>
<feComposite in2="hardAlpha" operator="out"/>
<feColorMatrix type="matrix" values="0 0 0 0 0 0 0 0 0 0 0 0 0 0 0 0 0 0 0.25 0"/>
<feBlend mode="normal" in2="BackgroundImageFix" result="effect1_dropShadow_33_11"/>
<feBlend mode="normal" in="SourceGraphic" in2="effect1_dropShadow_33_11" result="shape"/>
</filter>
</defs>
</svg>
